<?xml version="1.0" encoding="UTF-8" standalone="no"?>
<svg
   xmlns:osb="http://www.openswatchbook.org/uri/2009/osb"
   xmlns:dc="http://purl.org/dc/elements/1.1/"
   xmlns:cc="http://creativecommons.org/ns#"
   xmlns:rdf="http://www.w3.org/1999/02/22-rdf-syntax-ns#"
   xmlns:svg="http://www.w3.org/2000/svg"
   xmlns="http://www.w3.org/2000/svg"
   xmlns:sodipodi="http://sodipodi.sourceforge.net/DTD/sodipodi-0.dtd"
   xmlns:inkscape="http://www.inkscape.org/namespaces/inkscape"
   width="5.4882641mm"
   height="7.9375mm"
   viewBox="0 0 5.4882642 7.9374998"
   version="1.1"
   id="svg916"
   inkscape:version="1.0.1 (3bc2e813f5, 2020-09-07)"
   sodipodi:docname="EatingSpot-logo.svg">
  <defs
     id="defs910">
    <linearGradient
       id="linearGradient4074"
       osb:paint="solid">
      <stop
         style="stop-color:#000000;stop-opacity:1;"
         offset="0"
         id="stop4072" />
    </linearGradient>
  </defs>
  <sodipodi:namedview
     id="base"
     pagecolor="#ffffff"
     bordercolor="#666666"
     borderopacity="1.0"
     inkscape:pageopacity="0.0"
     inkscape:pageshadow="2"
     inkscape:zoom="4.1676048"
     inkscape:cx="87.38243"
     inkscape:cy="41.382829"
     inkscape:document-units="mm"
     inkscape:current-layer="layer1"
     inkscape:document-rotation="0"
     showgrid="false"
     inkscape:snap-global="true"
     inkscape:snap-bbox="true"
     inkscape:snap-bbox-midpoints="true"
     inkscape:bbox-nodes="true"
     inkscape:bbox-paths="true"
     inkscape:snap-bbox-edge-midpoints="true"
     inkscape:window-width="1920"
     inkscape:window-height="1017"
     inkscape:window-x="-8"
     inkscape:window-y="-8"
     inkscape:window-maximized="1">
    <inkscape:grid
       type="xygrid"
       id="grid1513"
       originx="-32.775671"
       originy="-22.349657" />
  </sodipodi:namedview>
  <metadata
     id="metadata913">
    <rdf:RDF>
      <cc:Work
         rdf:about="">
        <dc:format>image/svg+xml</dc:format>
        <dc:type
           rdf:resource="http://purl.org/dc/dcmitype/StillImage" />
        <dc:title></dc:title>
      </cc:Work>
    </rdf:RDF>
  </metadata>
  <g
     inkscape:label="Calque 1"
     inkscape:groupmode="layer"
     id="layer1"
     transform="translate(-32.775669,-22.34966)">
    <g
       transform="matrix(8.2052418e-4,0,0,-8.2052418e-4,35.070638,31.598724)"
       fill="#000000"
       stroke="none"
       id="g1501"
       style="fill:#aa6902;fill-opacity:1">
      <path
         id="path1497"
         style="fill:#aa6902;fill-opacity:1;stroke-width:0.300194"
         d="m 497.43971,11271.761 c -51.71703,-0.896 -103.42383,-3.315 -155.22021,-7.244 -463.1037,-34.169 -870.27873,-143.576 -1269.4963,-341.432 -291.5834,-143.603 -493.0433,-279.368 -744.3506,-499.15 -592.802,-519.2475 -1002.4648,-1291.6564 -1093.5327,-2066.5878 -7.8832,-63.9207 -18.5934,-148.9341 -22.9945,-187.4621 -20.1214,-161.9913 -4.1463,-534.9396 31.7428,-757.349 84.0652,-517.4966 272.1761,-985.0385 568.1375,-1409.7191 24.5224,-35.8982 72.8315,-108.5531 105.2282,-161.9671 32.407,-52.5373 83.9526,-135.8039 113.7271,-183.9632 47.3045,-76.1807 251.3175,-404.5836 393.1721,-634.8736 25.3939,-41.1566 81.4467,-131.1597 125.2255,-201.2091 42.9022,-70.0507 111.1932,-180.4056 151.4693,-245.2016 40.2902,-64.796 117.3027,-189.2576 170.7154,-275.9449 53.4139,-86.6874 170.00762,-274.065 258.44948,-415.917 87.55884,-141.852 200.41439,-322.987 249.44908,-402.669 49.03597,-79.6833 177.74243,-286.284 285.44317,-459.6587 C -84.087706,2615.9974 26.141807,2437.1314 180.25248,2189.3294 248.5486,2079 342.30141,1926.8243 388.71134,1852.3957 498.16277,1674.643 547.30112,1598.447 551.67784,1598.447 c 1.93242,0 21.75822,30.5833 44.4916,68.236 22.78201,36.7747 50.98246,81.3444 61.48789,97.9811 10.4939,16.6379 45.31959,71.9382 75.98483,122.7249 31.53546,50.7867 93.81806,151.404 138.47219,223.2054 44.64389,72.6779 138.28665,223.3538 207.45815,335.4325 106.8266,173.3747 224.1651,363.4602 541.1425,873.0763 81.4327,130.4686 908.0977,1463.0218 1287.2425,2075.0852 182.1307,294.212 358.8979,575.3398 393.922,626.1252 100.698,147.1054 160.3968,248.8092 237.4527,402.9199 188.2633,377.3966 294.1519,740.5817 341.432,1172.2664 16.6367,154.9861 14.0465,577.1341 -5.2469,714.6068 -60.4168,447.446 -180.5425,831.8915 -367.9266,1177.7655 -84.0587,154.986 -96.1664,175.9853 -171.4652,288.942 -463.2087,696.1248 -1175.0243,1196.9538 -1984.1044,1395.7218 -141.8546,35.022 -180.5502,42.095 -357.4288,65.736 -183.22358,24.955 -341.75449,36.121 -497.15003,33.494 z M 547.42909,9731.8184 A 1632.8986,1632.8986 0 0 0 2180.3536,8098.8938 1632.8986,1632.8986 0 0 0 2002.3885,7357.7912 c -283.8844,234.6054 -451.8624,381.0785 -680.6142,599.3812 -130.7579,124.8134 -194.7976,191.1068 -207.9584,214.457 -20.5899,36.7223 -28.1621,67.6908 -34.7425,143.4709 -7.4354,81.7244 -23.7726,145.1755 -53.4895,205.4591 -28.23247,57.9494 -78.04525,114.9351 -230.45386,263.9473 -107.83255,105.2859 -135.87687,131.4656 -252.20053,234.2035 -202.71665,178.9428 -410.4115,344.7824 -417.41682,332.6837 -5.09339,-8.9199 43.32447,-65.006 221.20639,-255.199 215.02907,-229.8882 291.6269,-317.0887 330.68342,-375.6754 20.59109,-30.7792 24.71443,-42.4709 17.49667,-47.9904 -18.46671,-13.797 -106.10874,58.0607 -323.6845,265.4471 -276.587336,263.8501 -328.812429,311.1507 -346.430672,310.9383 -18.6804303,0 30.035604,-57.3172 218.955322,-257.6983 220.75977,-234.3456 295.18715,-319.0032 333.18404,-379.9242 29.29336,-46.2755 14.85656,-61.3625 -30.99413,-32.494 -53.70448,33.7507 -128.92018,102.0213 -349.67994,317.6864 -210.359287,205.2646 -263.458445,253.6722 -276.194463,250.7006 -15.071551,-3.6089 38.794175,-68.5546 224.954773,-271.6961 165.5695,-180.4287 219.01163,-240.6419 267.19657,-299.4398 57.73695,-70.0493 80.1504,-106.8126 71.2357,-115.7273 -10.60908,-10.609 -46.00682,11.2234 -120.72598,74.485 -52.64229,44.5761 -137.58533,124.834 -307.18859,290.1923 -188.06997,182.9753 -234.58357,225.0738 -240.95157,218.7058 -1.0238,-1.0238 0.25594,-7.7809 3.25055,-14.9973 18.25555,-47.5477 156.469238,-221.2013 340.93161,-428.1642 112.71478,-126.3005 161.71619,-178.2133 272.94519,-289.4423 98.70541,-99.129 119.96197,-119.0803 145.22156,-137.9718 35.66136,-26.7467 66.40723,-43.4653 103.97924,-55.9889 36.72227,-12.0936 55.87237,-15.618 135.47248,-24.7451 71.96003,-8.28 103.50573,-14.282 133.22396,-25.7446 50.52048,-19.1053 86.28168,-47.7972 141.47188,-111.4786 17.6183,-20.5898 99.6025,-118.9394 181.9631,-218.7058 303.97,-368.0749 390.5677,-470.4443 540.6421,-639.6227 5.4901,-6.1939 7.0898,-7.9216 12.2472,-13.747 A 1632.8986,1632.8986 0 0 0 547.42909,6465.9693 1632.8986,1632.8986 0 0 0 -1085.4955,8098.8938 a 1632.8986,1632.8986 0 0 0 162.46873,709.8589 c 107.71225,-86.5951 211.39843,-173.0099 314.18623,-265.6979 90.42675,-81.9357 241.34702,-225.2261 291.44261,-277.4448 l 42.49136,-44.2408 14.7465,-29.9934 c 8.06239,-16.5573 29.4482,-71.4942 47.49132,-122.2258 44.78849,-126.3005 68.53415,-179.5865 108.22799,-246.4506 53.279601,-89.3659 106.6590234,-149.3424 268.19605,-300.6901 393.54703,-368.9234 737.65241,-619.1583 919.56681,-668.6166 58.7979,-15.92 107.3565,-7.5889 124.9747,21.4959 15.284,24.6223 6.9107,66.2281 -25.9941,126.7241 -41.817,77.9032 -114.605,170.86 -258.94866,332.1833 -73.23338,82.1494 -476.93902,489.8056 -684.11302,690.6129 -176.821016,171.725 -185.790745,179.1232 -301.689526,246.201 -74.719164,43.3028 -85.960434,51.9666 -144.972014,110.9769 -131.18149,131.1828 -296.79323,316.7931 -426.91509,477.9053 -40.39897,50.2606 -90.71981,116.028 -146.4706,188.9619 a 1632.8986,1632.8986 0 0 0 1328.2353,683.3644 z" />
    </g>
  </g>
</svg>
